<svg xmlns="http://www.w3.org/2000/svg" xmlns:xlink="http://www.w3.org/1999/xlink" version="1.1" width="1000" height="1000" viewBox="0 0 1000 1000" xml:space="preserve">
<desc>Created with Fabric.js 3.5.0</desc>
<defs>
</defs>
<rect x="0" y="0" width="100%" height="100%" fill="#ffffff"/>
<g transform="matrix(37.8788 0 0 37.8788 500 521.8581)" id="118027">
<g style="" vector-effect="non-scaling-stroke">
		<g transform="matrix(1 0 0 1 -0.25 -3.25)">
<path style="stroke: rgb(255,165,0); stroke-width: 1; stroke-dasharray: none; stroke-linecap: round; stroke-dashoffset: 0; stroke-linejoin: round; stroke-miterlimit: 4; is-custom-font: none; font-file-url: none; fill: none; fill-rule: nonzero; opacity: 1;" transform=" translate(-12, -9)" d="M 19 9 c 0 1.45 -0.43 2.78 -1.17 3.89 a 6.985 6.985 0 0 1 -4.78 3.02 c -0.34 0.06 -0.69 0.09 -1.05 0.09 s -0.71 -0.03 -1.05 -0.09 a 6.985 6.985 0 0 1 -4.78 -3.02 A 6.968 6.968 0 0 1 5 9 c 0 -3.87 3.13 -7 7 -7 s 7 3.13 7 7 z" stroke-linecap="round"/>
</g>
		<g transform="matrix(1 0 0 1 -0.2493 1.4243)">
<path style="stroke: rgb(255,165,0); stroke-width: 1; stroke-dasharray: none; stroke-linecap: round; stroke-dashoffset: 0; stroke-linejoin: round; stroke-miterlimit: 4; is-custom-font: none; font-file-url: none; fill: none; fill-rule: nonzero; opacity: 1;" transform=" translate(-12.0007, -13.6743)" d="m 21.25 18.47 l -1.65 0.39 c -0.37 0.09 -0.66 0.37 -0.74 0.74 l -0.35 1.47 a 1 1 0 0 1 -1.74 0.41 L 12 16 l -4.77 5.49 a 1 1 0 0 1 -1.74 -0.41 l -0.35 -1.47 a 0.996 0.996 0 0 0 -0.74 -0.74 l -1.65 -0.39 a 1.003 1.003 0 0 1 -0.48 -1.68 l 3.9 -3.9 a 6.985 6.985 0 0 0 4.78 3.02 c 0.34 0.06 0.69 0.09 1.05 0.09 s 0.71 -0.03 1.05 -0.09 c 1.99 -0.29 3.7 -1.42 4.78 -3.02 l 3.9 3.9 c 0.55 0.54 0.28 1.49 -0.48 1.67 z M 12.58 5.98 l 0.59 1.18 c 0.08 0.16 0.29 0.32 0.48 0.35 l 1.07 0.18 c 0.68 0.11 0.84 0.61 0.35 1.1 l -0.83 0.83 c -0.14 0.14 -0.22 0.41 -0.17 0.61 l 0.24 1.03 c 0.19 0.81 -0.24 1.13 -0.96 0.7 l -1 -0.59 a 0.701 0.701 0 0 0 -0.66 0 l -1 0.59 c -0.72 0.42 -1.15 0.11 -0.96 -0.7 l 0.24 -1.03 c 0.04 -0.19 -0.03 -0.47 -0.17 -0.61 l -0.83 -0.83 c -0.49 -0.49 -0.33 -0.98 0.35 -1.1 l 1.07 -0.18 c 0.18 -0.03 0.39 -0.19 0.47 -0.35 l 0.59 -1.18 c 0.29 -0.64 0.81 -0.64 1.13 0 z" stroke-linecap="round"/>
</g>
</g>
</g>
</svg>